<?xml version="1.0" encoding="UTF-8"?>
<!DOCTYPE svg PUBLIC "-//W3C//DTD SVG 1.1//EN" "http://www.w3.org/Graphics/SVG/1.1/DTD/svg11.dtd">
<!-- Creator: CorelDRAW -->
<svg xmlns="http://www.w3.org/2000/svg" xml:space="preserve" width="54.7712mm" height="54.7712mm" version="1.1" style="shape-rendering:geometricPrecision; text-rendering:geometricPrecision; image-rendering:optimizeQuality; fill-rule:evenodd; clip-rule:evenodd"
viewBox="0 0 1686.94 1686.94"
 xmlns:xlink="http://www.w3.org/1999/xlink"
 xmlns:xodm="http://www.corel.com/coreldraw/odm/2003">
 <defs>
  <style type="text/css">
   <![CDATA[
    .fil0 {fill:white}
   ]]>
  </style>
 </defs>
 <g id="Layer_x0020_1">
  <metadata id="CorelCorpID_0Corel-Layer"/>
  <path class="fil0" d="M847.61 -0l-755.42 0c-83.58,1.16 -92.08,39.96 -92.19,117.72l0 507.39 0 429.98c133,91.07 293.92,144.35 467.28,144.35 457.31,0 828.03,-370.72 828.03,-828.02 0,-133.55 -31.62,-259.72 -87.78,-371.42l-359.92 0zm50.02 1263.57l272.86 423.37 516.45 0 0 -1.59 -447.35 -694.12c-91.87,114.33 -208.58,207.86 -341.96,272.33zm-462.66 97.58c-156.96,-5.04 -304.68,-46.58 -434.97,-116.44l0 442.23 434.97 0 0 -325.79z"/>
 </g>
</svg>
